{"title":"Godzilla.2014.AVI.BRRip.DivX.NLsub.{Th3Sp3cialist}","uid":10891385,"size":1303762336,"categoryP":"video","categoryS":"hd___movies","magnet":"?xt=urn:btih:d902459f536e27e08190c9137b86c1b85702f856&amp;dn=Godzilla.2014.AVI.BRRip.DivX.NLsub.%7BTh3Sp3cialist%7D&amp;tr=udp%3A%2F%2Ftracker.openbittorrent.com%3A80&amp;tr=udp%3A%2F%2Fopen.demonii.com%3A1337&amp;tr=udp%3A%2F%2Ftracker.coppersurfer.tk%3A6969&amp;tr=udp%3A%2F%2Fexodus.desync.com%3A6969","seeders":3,"leechers":0,"uploader":"HOLLANDmovies","files":-1,"time":1409126454,"description":"Godzilla (2014)\n12 123 min  -  Action | Sci-Fi | Thriller  -  15 May 2014 (Netherlands)\n\nThe world's most famous monster is pitted against malevolent creatures who, bolstered by humanity's scientific arrogance, threaten our very existence.\n\nDirector: Gareth Edwards\nWriters: Max Borenstein (screenplay), Dave Callaham (story)\nStars: Aaron Taylor-Johnson, Elizabeth Olsen, Bryan Cranston\n\nGeneral\nComplete name                  : Godzilla.2014.BRRip.AVI.DivX.NLsub.{Th3Sp3cialist}.Movie.avi\nFormat                         : AVI\nFormat/Info                    : Audio Video Interleave\nFormat profile                 : OpenDML\nFile size                      : 1.20 GiB\nDuration                       : 2h 3mn\nOverall bit rate               : 1 399 Kbps\n\nVideo\nID                             : 0\nOriginal Source                : Godzilla 2014 1080p BRRip x264 DTS-JYK\nFormat                         : xvid\nCodec ID                       : xvid\nDuration                       : 2h 3mn\nBit rate                       : 1 063 Kbps\nWidth                          : 640 pixels\nHeight                         : 360 pixels\nDisplay aspect ratio           : 16:9\nFrame rate                     : 24.000 fps\nBits/(Pixel*Frame)             : 0.192\nStream size                    : 936 MiB (76%)\n\nAudio\nID                             : 1\nFormat                         : MPEG Audio\nFormat version                 : Version 1\nFormat profile                 : Layer 3\nMode                           : Joint stereo\nMode extension                 : MS Stereo\nCodec ID                       : 55\nCodec ID/Hint                  : MP3\nDuration                       : 2h 3mn\nBit rate mode                  : Constant\nBit rate                       : 320 Kbps\nChannel(s)                     : 2 channels\nSampling rate                  : 48.0 KHz\nCompression mode               : Lossy\nStream size                    : 282 MiB (23%)\nAlignment                      : Aligned on interleaves\nInterleave, duration           : 24 ms (0.58 video frame)\n &lt;a href=&quot;\nhttp://bayimg.com/fAamJaaGA&quot; rel=&quot;nofollow&quot; target=&quot;_NEW&quot;&gt;\nhttp://bayimg.com/fAamJaaGA&lt;/a&gt; &lt;a href=&quot;\nhttp://bayimg.com/FAAmkaAga&quot; rel=&quot;nofollow&quot; target=&quot;_NEW&quot;&gt;\nhttp://bayimg.com/FAAmkaAga&lt;/a&gt; &lt;a href=&quot;\nhttp://bayimg.com/fAAMmaagA&quot; rel=&quot;nofollow&quot; target=&quot;_NEW&quot;&gt;\nhttp://bayimg.com/fAAMmaagA&lt;/a&gt;\n","torrent":{"xt":"urn:btih:d902459f536e27e08190c9137b86c1b85702f856","amp;dn":"Godzilla.2014.AVI.BRRip.DivX.NLsub.%7BTh3Sp3cialist%7D","amp;tr":["udp%3A%2F%2Ftracker.openbittorrent.com%3A80","udp%3A%2F%2Fopen.demonii.com%3A1337","udp%3A%2F%2Ftracker.coppersurfer.tk%3A6969","udp%3A%2F%2Fexodus.desync.com%3A6969"],"infoHash":"d902459f536e27e08190c9137b86c1b85702f856","infoHashBuffer":{"type":"Buffer","data":[217,2,69,159,83,110,39,224,129,144,201,19,123,134,193,184,87,2,248,86]},"announce":[],"urlList":[]}}